<?xml version="1.0" standalone="no"?>
<!DOCTYPE svg PUBLIC "-//W3C//DTD SVG 20010904//EN"
 "https://www.w3.org/TR/2001/REC-SVG-20010904/DTD/svg10.dtd">
<svg version="1.0" xmlns="https://www.w3.org/2000/svg"
 width="478.000000pt" height="522.000000pt" viewBox="0 0 478.000000 522.000000"
 preserveAspectRatio="xMidYMid meet">

<g transform="translate(0.000000,522.000000) scale(0.100000,-0.100000)"
fill="#000000" stroke="none">
<path d="M2140 5044 c-452 -229 -940 -419 -1490 -579 -381 -111 -401 -120
-444 -207 l-26 -52 0 -510 0 -510 57 55 c99 96 64 89 441 89 314 0 334 -1 329
-17 -3 -10 -24 -72 -47 -137 -42 -123 -70 -256 -70 -332 0 -34 5 -47 26 -63
54 -42 136 -19 148 41 2 13 14 74 25 136 34 181 114 376 228 550 62 96 219
263 310 330 74 54 93 90 69 127 -35 53 -111 60 -178 15 -113 -75 -287 -267
-373 -412 l-40 -68 -292 0 -293 0 0 265 c0 242 2 267 18 283 10 10 79 37 153
61 191 60 186 58 200 99 18 55 104 135 172 160 76 29 176 29 260 1 72 -24 70
-25 277 56 247 97 403 166 591 260 l186 93 154 -75 c488 -238 846 -376 1574
-603 59 -18 107 -40 118 -52 14 -17 17 -41 17 -162 0 -97 4 -146 12 -154 13
-13 239 -17 297 -6 l31 7 0 226 c0 258 -8 306 -62 358 -44 42 -69 52 -309 118
-540 149 -1078 356 -1610 620 -116 58 -216 105 -222 104 -7 0 -113 -52 -237
-115z"/>
<path d="M2195 4279 c-98 -11 -274 -54 -335 -80 l-44 -20 44 -29 c25 -16 57
-44 71 -62 l26 -32 109 27 c187 44 256 46 185 4 -45 -26 -139 -103 -209 -171
-195 -187 -336 -412 -421 -667 -42 -128 -81 -319 -81 -397 0 -57 3 -67 29 -93
l29 -29 774 0 c857 0 805 -4 834 65 23 56 -20 309 -81 471 l-24 64 695 0 c755
0 751 0 776 55 17 37 0 76 -42 97 -32 16 -75 18 -452 18 l-417 0 -17 33 c-31
60 -111 172 -169 235 -51 56 -60 62 -96 62 -79 0 -134 50 -145 131 -6 47 -10
51 -68 90 -140 94 -367 184 -551 219 -82 15 -323 21 -420 9z m474 -194 c226
-58 465 -210 664 -420 43 -46 127 -151 127 -159 0 -3 -98 -6 -218 -6 l-219 0
-12 28 c-23 50 -139 216 -203 289 -72 82 -205 199 -289 253 -32 21 -56 39 -54
42 8 7 138 -10 204 -27z m-379 -690 l0 -505 -285 0 c-328 0 -295 -15 -270 119
47 245 189 531 355 714 55 60 184 177 196 177 2 0 4 -227 4 -505z m264 430
c115 -97 251 -276 328 -430 62 -123 126 -320 152 -467 l7 -38 -291 0 -290 0 0
506 c0 481 1 506 18 493 9 -7 44 -36 76 -64z"/>
<path d="M1311 4182 c-20 -10 -43 -33 -55 -56 -18 -36 -18 -42 -5 -79 20 -56
58 -82 121 -82 45 0 53 4 84 37 54 59 44 129 -25 175 -41 28 -74 29 -120 5z"/>
<path d="M3305 4098 c-63 -50 -65 -131 -5 -182 60 -50 141 -38 180 26 34 57
20 126 -34 162 -37 23 -107 21 -141 -6z"/>
<path d="M3663 3180 c-28 -25 -28 -37 -4 -140 11 -45 23 -114 27 -153 10 -109
36 -147 101 -147 36 0 71 24 84 57 10 26 3 82 -27 247 -21 111 -47 145 -114
153 -36 4 -49 1 -67 -17z"/>
<path d="M4312 3111 c-59 -38 -72 -72 -72 -197 0 -104 2 -113 25 -138 23 -25
28 -26 130 -26 l105 0 38 34 37 34 3 142 c2 96 0 146 -8 154 -6 6 -57 12 -118
14 -94 3 -111 1 -140 -17z"/>
<path d="M375 3075 c-78 -32 -144 -100 -173 -178 -25 -66 -29 -187 -12 -342
10 -87 38 -246 46 -254 2 -2 31 22 65 53 40 35 95 72 152 99 l89 42 -6 89 c-3
49 -6 185 -6 303 l0 213 -47 0 c-27 0 -74 -11 -108 -25z"/>
<path d="M893 2656 c-42 -19 -73 -70 -73 -120 0 -31 7 -45 39 -77 42 -42 84
-51 135 -28 20 10 33 7 73 -12 45 -23 61 -24 255 -27 205 -3 208 -3 212 -25
59 -296 134 -487 271 -692 120 -181 257 -320 417 -426 137 -90 168 -90 304 0
177 118 288 228 416 415 120 174 225 428 264 634 l18 92 651 0 c634 0 652 1
672 20 46 43 36 110 -19 129 -22 8 -554 11 -1731 11 l-1700 0 -51 54 c-58 62
-99 76 -153 52z m1395 -753 c1 -289 -1 -483 -7 -483 -15 0 -101 72 -169 141
-161 163 -275 358 -345 590 -32 103 -57 220 -51 231 3 5 132 7 287 6 l282 -3
3 -482z m755 480 c7 -14 -23 -143 -60 -252 -57 -175 -165 -366 -288 -513 -51
-61 -208 -198 -227 -198 -10 0 -11 954 -1 963 9 10 571 9 576 0z"/>
<path d="M444 2206 c-47 -21 -102 -73 -114 -110 -14 -42 2 -85 109 -291 134
-258 303 -505 450 -658 68 -71 97 -87 156 -87 82 0 205 85 205 141 0 11 -30
54 -66 96 -187 215 -340 446 -471 711 -52 106 -103 197 -113 202 -27 14 -119
12 -156 -4z"/>
<path d="M972 2200 c-12 -5 -25 -17 -29 -26 -10 -28 106 -271 190 -394 114
-167 283 -351 430 -468 81 -64 111 -78 145 -68 22 7 52 62 52 94 0 14 -46 62
-132 140 -211 190 -329 339 -438 552 -65 128 -87 153 -145 169 -46 13 -43 13
-73 1z"/>
<path d="M3735 2201 c-53 -13 -80 -39 -125 -118 -98 -174 -121 -212 -182 -293
-34 -47 -110 -133 -166 -192 -57 -59 -102 -111 -100 -116 1 -5 25 -28 51 -51
42 -36 51 -40 70 -30 74 39 240 221 348 381 76 113 179 317 186 367 4 32 2 38
-21 49 -15 7 -28 12 -29 11 -1 -1 -16 -4 -32 -8z"/>
<path d="M4058 2022 c-146 -296 -259 -469 -440 -673 -132 -148 -308 -308 -480
-437 -203 -152 -319 -224 -558 -346 l-194 -99 -203 102 c-111 57 -219 107
-239 111 -61 14 -125 -12 -193 -78 -66 -65 -82 -104 -54 -134 41 -46 430 -253
616 -329 52 -21 62 -22 105 -11 67 17 406 188 574 289 565 339 978 756 1287
1300 90 159 171 338 171 378 0 84 -38 105 -192 105 l-113 0 -87 -178z"/>
<path d="M3025 1397 c-56 -56 -58 -111 -7 -168 57 -64 165 -43 199 38 32 78
-27 163 -114 163 -38 0 -50 -5 -78 -33z"/>
<path d="M1374 960 c-28 -16 -76 -51 -105 -79 l-54 -49 50 -52 c71 -74 130
-110 179 -110 55 0 134 38 190 92 75 72 65 96 -86 192 -70 44 -106 46 -174 6z"/>
</g>
</svg>
